<svg width="458" height="98" viewBox="0 0 458 98" fill="none" xmlns="http://www.w3.org/2000/svg">
<path d="M-272 69.3127C-180.125 69.3127 -88.2501 69.3127 3.62479 69.3127C10.4411 69.3127 11.067 68.9405 10.9358 75.8926C10.8157 82.2544 9.29081 88.4245 9.29081 94.8099C9.29081 97.3019 10.647 95.112 11.6669 93.896C19.247 84.8581 27.5541 76.8687 36.7071 69.4041C58.4923 51.6375 82.9383 36.0303 110 27.7314C118.079 25.2539 132.159 22.3236 140.706 25.1726C148.552 27.7877 144.179 63.9357 144.179 72.0544C144.179 74.4888 142.576 85.467 144.544 87.0419C146.108 88.2931 181.566 63.0236 184.207 61.4534C204.909 49.1438 277.782 6.92207 281.534 55.696C282.322 65.9391 282.357 76.1402 282.357 86.4022C282.357 96.7299 323.175 72.1478 324.486 71.506C354.204 56.9602 381.274 45.8722 414.412 44.7295C420.933 44.5046 427.48 44.2114 433.694 46.2831" stroke="#699BF7" stroke-width="48" stroke-linecap="round" stroke-linejoin="round"/>
<path d="M-272 69.3127C-242.592 69.3127 9.41084 63.0423 9.29081 69.4041C9.17078 75.7659 9.29081 88.4245 9.29081 94.8099C9.29081 97.3019 10.647 95.112 11.6669 93.896C19.247 84.8581 27.5541 76.8687 36.7071 69.4041C58.4923 51.6375 82.9383 36.0303 110 27.7314C118.079 25.2539 132.159 22.3236 140.706 25.1726C148.552 27.7877 144.179 63.9357 144.179 72.0544C144.179 74.4888 142.576 85.467 144.544 87.0419C146.108 88.2931 181.566 63.0236 184.207 61.4534C204.909 49.1438 277.782 6.92207 281.534 55.696C282.322 65.9391 282.357 76.1402 282.357 86.4022C282.357 96.7299 323.175 72.1478 324.486 71.506C354.204 56.9602 381.274 45.8722 414.412 44.7295C420.933 44.5046 427.48 44.2114 433.694 46.2831" stroke="black" stroke-width="4" stroke-linecap="round" stroke-linejoin="round"/>
<circle cx="433.5" cy="45.75" r="8" fill="white" stroke="black" stroke-width="4"/>
<circle cx="285" cy="85.5" r="8" fill="white" stroke="black" stroke-width="4"/>
<circle cx="244.5" cy="35" r="8" fill="white" stroke="black" stroke-width="4"/>
<circle cx="143.25" cy="89.25" r="8" fill="white" stroke="black" stroke-width="4"/>
<circle cx="137.25" cy="24" r="8" fill="white" stroke="black" stroke-width="4"/>
<circle cx="9.625" cy="91.125" r="6.375" fill="white" stroke="black" stroke-width="3.75"/>
<circle cx="9.625" cy="59.625" r="6.375" fill="white" stroke="black" stroke-width="3.75"/>
</svg>
